<svg width="28" height="21" viewBox="0 0 28 21" fill="none" xmlns="http://www.w3.org/2000/svg">
<path d="M12.5117 14.1953C12.5273 13.2656 12.6328 12.5312 12.8281 11.9922C13.0234 11.4531 13.4219 10.8555 14.0234 10.1992L15.5586 8.61719C16.2148 7.875 16.543 7.07812 16.543 6.22656C16.543 5.40625 16.3281 4.76562 15.8984 4.30469C15.4688 3.83594 14.8438 3.60156 14.0234 3.60156C13.2266 3.60156 12.5859 3.8125 12.1016 4.23438C11.6172 4.65625 11.375 5.22266 11.375 5.93359H9.20703C9.22266 4.66797 9.67188 3.64844 10.5547 2.875C11.4453 2.09375 12.6016 1.70312 14.0234 1.70312C15.5 1.70312 16.6484 2.10156 17.4688 2.89844C18.2969 3.6875 18.7109 4.77344 18.7109 6.15625C18.7109 7.52344 18.0781 8.87109 16.8125 10.1992L15.5352 11.4648C14.9648 12.0977 14.6797 13.0078 14.6797 14.1953H12.5117ZM12.418 17.9102C12.418 17.5586 12.5234 17.2656 12.7344 17.0312C12.9531 16.7891 13.2734 16.668 13.6953 16.668C14.1172 16.668 14.4375 16.7891 14.6562 17.0312C14.875 17.2656 14.9844 17.5586 14.9844 17.9102C14.9844 18.2617 14.875 18.5547 14.6562 18.7891C14.4375 19.0156 14.1172 19.1289 13.6953 19.1289C13.2734 19.1289 12.9531 19.0156 12.7344 18.7891C12.5234 18.5547 12.418 18.2617 12.418 17.9102Z" fill="#FDDFA7"/>
<path d="M12.5117 14.1953L12.2118 14.1903L12.2066 14.4953H12.5117V14.1953ZM14.0234 10.1992L13.8081 9.99022L13.8023 9.9965L14.0234 10.1992ZM15.5586 8.61719L15.7741 8.82633L15.7833 8.81591L15.5586 8.61719ZM15.8984 4.30469L15.6773 4.50741L15.679 4.50925L15.8984 4.30469ZM11.375 5.93359V6.23359H11.675V5.93359H11.375ZM9.20703 5.93359L8.90705 5.92989L8.9033 6.23359H9.20703V5.93359ZM10.5547 2.875L10.7524 3.10065L10.7525 3.10053L10.5547 2.875ZM17.4688 2.89844L17.2597 3.11363L17.2618 3.11563L17.4688 2.89844ZM16.8125 10.1992L17.0237 10.4124L17.0297 10.4062L16.8125 10.1992ZM15.5352 11.4648L15.324 11.2517L15.318 11.2577L15.3123 11.264L15.5352 11.4648ZM14.6797 14.1953V14.4953H14.9797V14.1953H14.6797ZM12.7344 17.0312L12.5117 16.8302L12.5114 16.8306L12.7344 17.0312ZM14.6562 17.0312L14.4336 17.2324L14.4369 17.2359L14.6562 17.0312ZM14.6562 18.7891L14.8721 18.9975L14.8756 18.9938L14.6562 18.7891ZM12.7344 18.7891L12.5112 18.9899L12.5186 18.9974L12.7344 18.7891ZM12.8117 14.2004C12.827 13.2859 12.931 12.589 13.1102 12.0944L12.5461 11.89C12.3346 12.4735 12.2276 13.2454 12.2118 14.1903L12.8117 14.2004ZM13.1102 12.0944C13.2867 11.6073 13.6566 11.0434 14.2446 10.4019L13.8023 9.9965C13.1872 10.6675 12.7602 11.299 12.5461 11.89L13.1102 12.0944ZM14.2387 10.4081L15.7739 8.82611L15.3433 8.40827L13.8081 9.9903L14.2387 10.4081ZM15.7833 8.81591C16.4797 8.02839 16.843 7.1631 16.843 6.22656H16.243C16.243 6.99315 15.95 7.72161 15.3338 8.41847L15.7833 8.81591ZM16.843 6.22656C16.843 5.35394 16.6135 4.63175 16.1179 4.10012L15.679 4.50925C16.0428 4.8995 16.243 5.45856 16.243 6.22656H16.843ZM16.1196 4.10197C15.6177 3.55445 14.902 3.30156 14.0234 3.30156V3.90156C14.7855 3.90156 15.3198 4.11743 15.6773 4.5074L16.1196 4.10197ZM14.0234 3.30156C13.1722 3.30156 12.4558 3.52804 11.9045 4.00815L12.2986 4.4606C12.7161 4.09696 13.2809 3.90156 14.0234 3.90156V3.30156ZM11.9045 4.00815C11.3473 4.49349 11.075 5.1463 11.075 5.93359H11.675C11.675 5.29901 11.8871 4.81901 12.2986 4.4606L11.9045 4.00815ZM11.375 5.63359H9.20703V6.23359H11.375V5.63359ZM9.50701 5.9373C9.52167 4.74931 9.93905 3.81321 10.7524 3.10065L10.357 2.64935C9.4047 3.48366 8.92364 4.58663 8.90705 5.92989L9.50701 5.9373ZM10.7525 3.10053C11.5779 2.37649 12.6591 2.00313 14.0234 2.00313V1.40312C12.5441 1.40312 11.3127 1.81101 10.3569 2.64947L10.7525 3.10053ZM14.0234 2.00313C15.4456 2.00313 16.5103 2.38564 17.2597 3.11362L17.6778 2.68325C16.7866 1.81749 15.5544 1.40312 14.0234 1.40312V2.00313ZM17.2618 3.11563C18.0184 3.83649 18.4109 4.83707 18.4109 6.15625H19.0109C19.0109 4.70981 18.5754 3.53851 17.6757 2.68124L17.2618 3.11563ZM18.4109 6.15625C18.4109 7.42308 17.8264 8.70041 16.5953 9.99226L17.0297 10.4062C18.3299 9.04178 19.0109 7.62379 19.0109 6.15625H18.4109ZM16.6013 9.98611L15.324 11.2517L15.7463 11.678L17.0237 10.4123L16.6013 9.98611ZM15.3123 11.264C14.6757 11.9704 14.3797 12.9629 14.3797 14.1953H14.9797C14.9797 13.0527 15.254 12.225 15.758 11.6657L15.3123 11.264ZM14.6797 13.8953H12.5117V14.4953H14.6797V13.8953ZM12.718 17.9102C12.718 17.6235 12.8018 17.4048 12.9574 17.2319L12.5114 16.8306C12.2451 17.1265 12.118 17.4937 12.118 17.9102H12.718ZM12.957 17.2323C13.1033 17.0703 13.3319 16.968 13.6953 16.968V16.368C13.2149 16.368 12.8029 16.5078 12.5117 16.8302L12.957 17.2323ZM13.6953 16.968C14.0587 16.968 14.2873 17.0703 14.4336 17.2323L14.8789 16.8302C14.5877 16.5078 14.1757 16.368 13.6953 16.368V16.968ZM14.4369 17.2359C14.5986 17.4092 14.6844 17.6266 14.6844 17.9102H15.2844C15.2844 17.4906 15.1514 17.1221 14.8756 16.8266L14.4369 17.2359ZM14.6844 17.9102C14.6844 18.1937 14.5986 18.4111 14.4369 18.5844L14.8756 18.9938C15.1514 18.6983 15.2844 18.3297 15.2844 17.9102H14.6844ZM14.4404 18.5807C14.2954 18.7309 14.0645 18.8289 13.6953 18.8289V19.4289C14.1699 19.4289 14.5796 19.3004 14.8721 18.9974L14.4404 18.5807ZM13.6953 18.8289C13.3262 18.8289 13.0952 18.7309 12.9502 18.5807L12.5186 18.9974C12.8111 19.3004 13.2207 19.4289 13.6953 19.4289V18.8289ZM12.9574 18.5884C12.8018 18.4155 12.718 18.1968 12.718 17.9102H12.118C12.118 18.3267 12.2451 18.6938 12.5114 18.9898L12.9574 18.5884Z" fill="#CE9745"/>
</svg>
