<svg width="23" height="23" viewBox="0 0 23 23" fill="none" xmlns="http://www.w3.org/2000/svg">
<path d="M14.5 0.809018L16.1706 5.95061L16.2267 6.12336H16.4084L21.8146 6.12336L17.4409 9.30103L17.2939 9.4078L17.35 9.58054L19.0206 14.7221L14.6469 11.5445L14.5 11.4377L14.3531 11.5445L9.97935 14.7221L11.65 9.58054L11.7061 9.4078L11.5591 9.30103L7.18544 6.12336L12.5916 6.12336H12.7733L12.8294 5.95061L14.5 0.809018Z" fill="#FDDFA7" stroke="#CE9745" stroke-width="0.5"/>
<path d="M14.5 16.809L15.048 18.4957L15.1042 18.6684H15.2858H17.0593L15.6245 19.7109L15.4776 19.8176L15.5337 19.9904L16.0817 21.6771L14.6469 20.6346L14.5 20.5279L14.3531 20.6346L12.9183 21.6771L13.4663 19.9904L13.5224 19.8176L13.3755 19.7109L11.9407 18.6684H13.7142H13.8958L13.952 18.4957L14.5 16.809Z" fill="#FDDFA7" stroke="#CE9745" stroke-width="0.5"/>
<path d="M4.50001 11.7613L5.32617 14.1378L5.38455 14.3057H5.56231H8.18682L6.07841 15.7375L5.91973 15.8452L5.98272 16.0264L6.79717 18.3692L4.64045 16.9046L4.50001 16.8093L4.35956 16.9046L2.20284 18.3692L3.0173 16.0264L3.08028 15.8452L2.9216 15.7375L0.813186 14.3057H3.4377H3.61546L3.67384 14.1378L4.50001 11.7613Z" fill="#FDDFA7" stroke="#CE9745" stroke-width="0.5"/>
</svg>
