<svg width="25" height="25" viewBox="0 0 25 25" fill="none" xmlns="http://www.w3.org/2000/svg">
<path fill-rule="evenodd" clip-rule="evenodd" d="M6.89684 14.0625H21.875C22.2894 14.0625 22.6868 13.8979 22.9798 13.6049C23.2728 13.3118 23.4375 12.9144 23.4375 12.5C23.4375 12.0856 23.2728 11.6882 22.9798 11.3951C22.6868 11.1021 22.2894 10.9375 21.875 10.9375L6.89684 10.9375L10.9765 6.85781C11.2695 6.56483 11.4341 6.16746 11.4341 5.75312C11.4341 5.33878 11.2695 4.94142 10.9765 4.64843C10.6836 4.35545 10.2862 4.19086 9.87184 4.19086C9.45751 4.19086 9.06014 4.35545 8.76716 4.64843L2.03747 11.3766L2.02028 11.3953C1.87468 11.5401 1.75913 11.7122 1.68029 11.9018C1.60144 12.0914 1.56085 12.2947 1.56085 12.5C1.56085 12.7053 1.60144 12.9086 1.68029 13.0982C1.75913 13.2878 1.87468 13.4599 2.02028 13.6047L2.03747 13.6234L8.76716 20.3516C9.06014 20.6445 9.45751 20.8091 9.87184 20.8091C10.2862 20.8091 10.6836 20.6445 10.9765 20.3516C11.2695 20.0586 11.4341 19.6612 11.4341 19.2469C11.4341 18.8325 11.2695 18.4352 10.9765 18.1422L6.89684 14.0625Z" fill="white"/>
</svg>
