<svg width="46" height="36" id="page_next" viewBox="0 0 46 36" fill="none" xmlns="http://www.w3.org/2000/svg">
<path fill-rule="evenodd" clip-rule="evenodd" d="M34.78 14.6152L3.28547 14.6152C2.41411 14.6152 1.57844 14.9718 0.962292 15.6066C0.346146 16.2413 0 17.1023 0 18C0 18.8977 0.346146 19.7587 0.962292 20.3934C1.57844 21.0282 2.41411 21.3848 3.28547 21.3848L34.78 21.3848L26.2016 30.2226C25.5856 30.8573 25.2395 31.7181 25.2395 32.6157C25.2395 33.5133 25.5856 34.3741 26.2016 35.0088C26.8177 35.6434 27.6532 36 28.5245 36C29.3957 36 30.2312 35.6434 30.8473 35.0088L44.9978 20.4337L45.034 20.3931C45.3401 20.0795 45.5831 19.7066 45.7489 19.2959C45.9147 18.8852 46 18.4448 46 18C46 17.5552 45.9147 17.1148 45.7489 16.7041C45.5831 16.2934 45.3401 15.9205 45.034 15.6069L44.9978 15.5663L30.8473 0.991243C30.2312 0.35656 29.3957 0 28.5245 0C27.6532 0 26.8177 0.35656 26.2016 0.991243C25.5856 1.62593 25.2395 2.48674 25.2395 3.38432C25.2395 4.28189 25.5856 5.14271 26.2016 5.77739L34.78 14.6152Z"/>
</svg>
