<svg width="46" height="36" id="page_back" viewBox="0 0 46 36" fill="none" xmlns="http://www.w3.org/2000/svg">
<path fill-rule="evenodd" clip-rule="evenodd" d="M11.22 21.3848H42.7145C43.5859 21.3848 44.4216 21.0282 45.0377 20.3934C45.6539 19.7587 46 18.8977 46 18C46 17.1023 45.6539 16.2413 45.0377 15.6066C44.4216 14.9718 43.5859 14.6152 42.7145 14.6152L11.22 14.6152L19.7984 5.77739C20.4144 5.14271 20.7605 4.28189 20.7605 3.38432C20.7605 2.48674 20.4144 1.62593 19.7984 0.991245C19.1823 0.356564 18.3468 0 17.4755 0C16.6043 0 15.7688 0.356564 15.1527 0.991245L1.00218 15.5663L0.966043 15.6069C0.659886 15.9205 0.416928 16.2934 0.251138 16.7041C0.0853489 17.1148 0 17.5552 0 18C0 18.4448 0.0853489 18.8852 0.251138 19.2959C0.416928 19.7066 0.659886 20.0795 0.966043 20.3931L1.00218 20.4337L15.1527 35.0088C15.7688 35.6434 16.6043 36 17.4755 36C18.3468 36 19.1823 35.6434 19.7984 35.0088C20.4144 34.3741 20.7605 33.5133 20.7605 32.6157C20.7605 31.7181 20.4144 30.8573 19.7984 30.2226L11.22 21.3848Z"/>
</svg>
