<svg id="default" height="511pt" viewBox="1 -72 511.9995 511" width="511pt" xmlns="http://www.w3.org/2000/svg"><path d="m463.871094 346.210938h-269.542969l9.019531-9.050782 166.09375-166.730468c21.726563-21.808594 21.726563-57.289063 0-79.101563l-74.152344-74.429687c-10.539062-10.570313-24.550781-16.398438-39.460937-16.398438s-28.917969 5.828125-39.457031 16.398438l-166.09375 166.730468-33.980469 34.109375c-21.730469 21.8125-21.730469 57.300781 0 79.101563l66.171875 66.417968c1.867188 1.890626 4.417969 2.953126 7.078125 2.953126h374.324219c5.519531 0 10-4.480469 10-10 0-5.53125-4.480469-10-10-10zm-233.332032-315.191407c6.757813-6.78125 15.738282-10.519531 25.289063-10.519531s18.539063 3.738281 25.289063 10.519531l74.152343 74.421875c6.988281 7.019532 10.480469 16.226563 10.480469 25.4375 0 9.210938-3.492188 18.421875-10.480469 25.441406l-159.011719 159.609376-124.78125-125.25zm-200.082031 251.710938c-13.96875-14.03125-13.96875-36.851563 0-50.878907l26.902344-27 124.789063 125.25-16.050782 16.109376h-72.390625zm0 0"/><path d="m502 366.5c-5.523438 0-10.003906-4.476562-10.003906-10s4.472656-10 9.992187-10h.011719c5.523438 0 10 4.476562 10 10s-4.476562 10-10 10zm0 0"/></svg>