<svg width="150" height="200" xmlns="http://www.w3.org/2000/svg" xmlns:svg="http://www.w3.org/2000/svg"><defs><clipPath id="clip0"><rect id="svg_1" x="102" y="12" fill="white" height="40" width="40"/></clipPath></defs><g><path id="svg_2" fill="#005FF9" d="m137.519,91.6795c5.938,3.9582 5.938,12.6825 0,16.6415l-121.972,81.314c-6.64555,4.431 -15.54701,-0.333 -15.54701,-8.32l0.00001,-162.6298c0,-7.987 8.90146,-12.7509 15.547,-8.3205l121.972,81.3148z"/><path id="svg_3" fill="#FF9E00" d="m137.519,91.6795c5.938,3.9582 5.938,12.6825 0,16.6415l-88.9442,59.296c-9.3552,6.237 -20.2932,-5.326 -13.547,-14.321l35.4722,-47.296c2.6667,-3.556 2.6667,-8.4444 0,-12l-35.4722,-47.2963c-6.7462,-8.9949 4.1917,-20.5574 13.547,-14.3205l88.9442,59.2963z"/><path id="svg_4" fill="#005FF9" d="m127,166.551c5.123,0 9.275,-4.153 9.275,-9.276c0,-5.122 -4.152,-9.275 -9.275,-9.275c-5.123,0 -9.275,4.153 -9.275,9.275c0,5.123 4.152,9.276 9.275,9.276z"/><path id="svg_5" fill="#005FF9" d="m127.294,170.09c-8.154,0 -15.193,3.263 -16.938,12.929c-0.491,2.718 1.824,4.981 4.585,4.981l12.059,0l12.059,0c2.761,0 5.072,-2.261 4.614,-4.984c-1.628,-9.664 -8.225,-12.926 -16.379,-12.926z"/><g id="svg_6" clip-path="url(#clip0)"><path id="svg_7" fill="#03AA6F" d="m136.375,18.2128l-2.069,1.3794l-3.449,-0.6897l-2.069,-0.6897l-2.759,0.6897l-2.069,-0.6897l1.379,-2.7589l2.759,0l2.704,-1.3518c2.085,1.0311 3.971,2.4229 5.573,4.1107z"/><path id="svg_8" fill="#03AA6F" d="m120.511,15.4538l-0.689,2.0691l-2.069,0.6897l-2.069,3.4485l-3.449,2.0692l-4.828,0.6897l0,2.0691l1.379,1.3794l0,2.7588l-2.069,-1.3794l-2.069,-1.3794l-1.2,-3.6071c2.066,-4.9225 6.014,-8.8139 10.967,-10.8078l1.958,1.3105l4.138,0.6897z"/><path id="svg_9" fill="#03AA6F" d="m121.891,34.7655l-0.69,3.4486l-2.759,2.7588l0,2.0691l-2.758,2.0691l0,3.4485l-2.07,-0.6897l-1.379,-3.4485l0,-6.897l-3.449,-0.6897l-1.379,-2.7589l0,-2.0691l1.379,-1.3794l2.07,-2.0691l1.379,2.7588l4.828,0l2.069,3.4485l2.759,0z"/><path id="svg_10" fill="#03AA6F" d="m139.34,22.2335c3.766,6.717 3.337,14.9997 -1.103,21.2911l-1.862,-1.8622l0,-2.7588l-1.38,-2.7588l-1.379,-2.7589l0,-2.7588l-2.069,-1.3794l-2.759,0.6897l-4.828,-2.0691l-0.69,-4.8279l2.07,-2.0692l4.138,0l1.379,2.0692l4.138,0.6897l4.139,-1.3794l0.206,-0.1172z"/><path id="svg_11" fill="#86DAF1" d="m126.137,18.9023l2.759,-0.6897l2.069,0.6897l3.448,0.6897l2.069,-1.3794c1.156,1.209 2.152,2.5601 2.966,4.0209l-0.207,0.1173l-4.138,1.3794l-4.138,-0.6897l-1.379,-2.0692l-4.139,0l-2.069,2.0692l0.69,4.8279l4.828,2.0691l2.759,-0.6897l2.069,1.3794l0,2.7588l1.379,2.7589l1.379,2.7588l0,2.7588l1.863,1.8622c-6.37,9.0255 -18.85,11.1781 -27.875,4.8086c-7.664,-5.4101 -10.5399,-15.4198 -6.914,-24.072l1.2,3.6071l2.069,1.3794l2.069,1.3793l-1.379,1.3795l0,2.0691l1.379,2.7589l3.449,0.6897l0,6.897l1.379,3.4485l2.069,0.6897l0,-3.4485l2.759,-2.0692l0,-2.0691l2.759,-2.7588l0.69,-3.4486l-2.759,0l-2.069,-3.4485l-4.828,0l-1.38,-2.7588l-2.069,2.0691l0,-2.7588l-1.379,-1.3793l0,-2.0691l4.828,-0.6897l3.448,-2.0692l2.069,-3.4485l2.07,-0.6897l0.689,-2.0691l-4.138,-0.6897l-1.959,-1.3105c5.304,-2.136 11.269,-1.9002 16.388,0.6484l-2.704,1.3518l-2.759,0l-1.379,2.7588l2.069,0.6898z"/></g><path id="svg_12" fill="#005FF9" d="m88.34882,166.551c5.123,0 9.275,-4.153 9.275,-9.276c0,-5.122 -4.152,-9.275 -9.275,-9.275c-5.123,0 -9.275,4.153 -9.275,9.275c0,5.123 4.152,9.276 9.275,9.276z"/><path id="svg_13" fill="#005FF9" d="m88.64282,170.09c-8.154,0 -15.193,3.263 -16.938,12.929c-0.491,2.718 1.824,4.981 4.585,4.981l12.059,0l12.059,0c2.761,0 5.072,-2.261 4.614,-4.984c-1.628,-9.664 -8.225,-12.926 -16.379,-12.926z"/></g></svg>
