<?xml version="1.0" encoding="iso-8859-1"?>
<!DOCTYPE svg PUBLIC "-//W3C//DTD SVG 1.1//EN" "http://www.w3.org/Graphics/SVG/1.1/DTD/svg11.dtd">
<svg version="1.1" id="scoreboard" xmlns="http://www.w3.org/2000/svg" xmlns:xlink="http://www.w3.org/1999/xlink"
	  width="297" height="254" viewBox="0 21 297 254" style="enable-background:new 0 0 297 297;" xml:space="preserve">
<g>
	<path d="M140.364,53.674c-3.814,0-6.904,3.09-6.904,6.903c0,3.813,3.091,6.903,6.904,6.903h16.271c3.814,0,6.904-3.091,6.904-6.903
		c0-3.813-3.091-6.903-6.904-6.903h-1.232V34.936h1.232c3.814,0,6.904-3.091,6.904-6.903c0-3.813-3.091-6.903-6.904-6.903h-16.271
		c-3.814,0-6.904,3.09-6.904,6.903c0,3.813,3.091,6.903,6.904,6.903h1.232v18.738H140.364z"/>
	<path d="M22.93,83.753c-3.814,0-6.903,3.091-6.903,6.903c0,3.813,3.09,6.904,6.903,6.904h32.545c3.813,0,6.903-3.091,6.903-6.904
		c0-3.646-2.828-6.624-6.41-6.878V64.99c3.582-0.255,6.41-3.232,6.41-6.879c0-3.813-3.091-6.903-6.903-6.903H22.93
		c-3.814,0-6.903,3.091-6.903,6.903s3.09,6.903,6.903,6.903h1.232v18.738H22.93z M37.969,65.015h4.191v18.738h-4.191V65.015z"/>
	<path d="M222.959,130.105c0,3.813,3.091,6.903,6.903,6.903h48.817c3.814,0,6.903-3.091,6.903-6.903c0-3.647-2.828-6.625-6.41-6.879
		v-18.788c3.582-0.255,6.41-3.232,6.41-6.878c0-3.813-3.09-6.904-6.903-6.904h-48.817c-3.813,0-6.903,3.091-6.903,6.904
		c0,3.646,2.829,6.623,6.41,6.878v18.788C225.788,123.48,222.959,126.459,222.959,130.105z M261.175,104.463h4.191v18.738h-4.191
		V104.463z M243.177,104.463h4.191v18.738h-4.191V104.463z"/>
	<path d="M68.542,148.244H9.862c-5.446,0-9.862,4.414-9.862,9.861V266.01c0,5.445,4.416,9.861,9.862,9.861h58.68
		c5.446,0,9.861-4.416,9.861-9.861V158.105C78.403,152.658,73.988,148.244,68.542,148.244z"/>
	<path d="M194.713,101.998h-92.425c-5.446,0-9.862,4.417-9.862,9.862v153.849c0,5.447,4.416,9.862,9.862,9.862h92.425
		c5.446,0,9.862-4.415,9.862-9.862V111.86C204.575,106.415,200.159,101.998,194.713,101.998z"/>
	<path d="M287.138,179.072H229.37c-5.446,0-9.862,4.417-9.862,9.862v77.075c0,5.445,4.416,9.861,9.862,9.861h57.768
		c5.446,0,9.862-4.416,9.862-9.861v-77.075C297,183.489,292.584,179.072,287.138,179.072z"/>
</g>
</svg>
