<svg width="40" height="59" id="rules" viewBox="0 0 40 59" xmlns="http://www.w3.org/2000/svg">
<path d="M19.1578 0C29.3633 0 39.4109 4.70013 39.4109 15.9424C39.4109 26.3098 27.5307 30.2968 24.9793 34.043C23.0639 36.8296 23.7036 40.7451 18.4409 40.7451C15.0127 40.7451 13.3381 37.9567 13.3381 35.4053C13.3381 25.9109 27.288 23.7622 27.288 15.9443C27.288 11.6412 24.4243 9.0898 19.6376 9.0898C9.43201 9.0898 13.4171 19.6115 5.68771 19.6115C2.89736 19.6115 0.502137 17.9369 0.502137 14.7495C0.500255 6.92978 9.42825 0 19.1578 0ZM18.7608 45.9213C22.3433 45.9213 25.2992 48.8678 25.2992 52.4616C25.2992 56.0554 22.3489 59.0019 18.7608 59.0019C15.1726 59.0019 12.2205 56.0591 12.2205 52.4616C12.2205 48.8697 15.1726 45.9213 18.7608 45.9213Z"/>
</svg>
