<svg width="66" height="66" fill="none" xmlns="http://www.w3.org/2000/svg"><g clip-path="url(#clip0)"><g clip-path="url(#clip1)"><path fill-rule="evenodd" clip-rule="evenodd" d="M68.775 32.003c-.114-1.012-1.294-1.773-2.315-1.773-3.299 0-6.226-1.937-7.454-4.933-1.254-3.068-.445-6.647 2.013-8.902a2 2 0 0 0 .22-2.715 35.625 35.625 0 0 0-5.704-5.76 2.004 2.004 0 0 0-2.736.222c-2.146 2.376-6 3.26-8.979 2.017-3.1-1.304-5.054-4.445-4.862-7.816A1.997 1.997 0 0 0 37.19.24a35.941 35.941 0 0 0-8.099-.022 2.003 2.003 0 0 0-1.783 2.06c.118 3.338-1.86 6.424-4.929 7.681-2.943 1.202-6.77.327-8.912-2.029a2.008 2.008 0 0 0-2.716-.228 35.758 35.758 0 0 0-5.824 5.758 2.003 2.003 0 0 0 .214 2.736c2.506 2.269 3.315 5.878 2.013 8.982-1.242 2.96-4.315 4.866-7.833 4.866-1.141-.036-1.954.73-2.08 1.768a36.064 36.064 0 0 0-.015 8.187c.113 1.016 1.33 1.77 2.361 1.77 3.135-.08 6.145 1.86 7.407 4.933 1.259 3.069.45 6.645-2.013 8.902a2 2 0 0 0-.219 2.713 35.753 35.753 0 0 0 5.696 5.762c.824.664 2.024.57 2.74-.217 2.153-2.383 6.007-3.264 8.974-2.02 3.107 1.3 5.062 4.441 4.87 7.814a2 2 0 0 0 1.767 2.103 35.778 35.778 0 0 0 8.1.022 2.003 2.003 0 0 0 1.782-2.062c-.12-3.336 1.86-6.422 4.925-7.676 2.963-1.21 6.774-.325 8.916 2.028a2.012 2.012 0 0 0 2.717.227 35.841 35.841 0 0 0 5.824-5.758 1.999 1.999 0 0 0-.215-2.736c-2.506-2.269-3.319-5.879-2.017-8.98 1.224-2.92 4.182-4.88 7.365-4.88l.445.01c1.032.084 1.982-.71 2.107-1.764.317-2.707.32-5.46.016-8.187zM33.058 48.084c-6.622 0-12.008-5.386-12.008-12.008 0-6.621 5.386-12.008 12.008-12.008 6.622 0 12.008 5.387 12.008 12.008 0 6.622-5.386 12.008-12.008 12.008z" fill="#fff"/></g></g><defs><clipPath id="clip0"><path fill="#fff" d="M0 0h66v66H0z"/></clipPath><clipPath id="clip1"><path fill="#fff" transform="translate(-3)" d="M0 0h72v72H0z"/></clipPath></defs></svg>