<svg width="28" height="28" fill="none" xmlns="http://www.w3.org/2000/svg"><g clip-path="url(#clip0)" fill="#fff"><path d="M0 6.913v14.174a3.554 3.554 0 0 0 3.546 3.547h11.456a3.553 3.553 0 0 0 3.547-3.547v-2.296a.702.702 0 1 0-1.405 0v2.296a2.152 2.152 0 0 1-2.147 2.147H3.546a2.152 2.152 0 0 1-2.148-2.147V6.913c0-1.182.965-2.147 2.147-2.147h11.456c1.182 0 2.147.965 2.147 2.147v2.296a.702.702 0 1 0 1.405 0V6.913a3.554 3.554 0 0 0-3.546-3.546H3.546A3.55 3.55 0 0 0 0 6.913z"/><path d="M22.01 19.282a.696.696 0 0 0 .496.206c.183 0 .36-.069.497-.206l4.791-4.79a.696.696 0 0 0 0-.989l-4.79-4.791a.696.696 0 0 0-.989 0 .696.696 0 0 0 0 .988l3.598 3.598h-13.13a.702.702 0 1 0 0 1.404h13.124L22.01 18.3a.69.69 0 0 0 0 .982z"/></g><defs><clipPath id="clip0"><path fill="#fff" d="M0 0h28v28H0z"/></clipPath></defs></svg>