<svg width="150" height="200" id="singleicon" viewBox="0 0 150 200" xmlns="http://www.w3.org/2000/svg">
<path id="singleicon__play" d="M137.519 91.6795C143.457 95.6377 143.457 104.362 137.519 108.321L15.547 189.635C8.90147 194.066 -8.66461e-06 189.302 -8.29903e-06 181.315L-8.55246e-07 18.6852C-4.89672e-07 10.6982 8.90146 5.9343 15.547 10.3647L137.519 91.6795Z" />
<g clip-path="url(#clip0)">
<path id="singleicon__userhead" d="M130 156.551C135.123 156.551 139.275 152.398 139.275 147.275C139.275 142.153 135.123 138 130 138C124.877 138 120.725 142.153 120.725 147.275C120.725 152.398 124.877 156.551 130 156.551Z" />
<path id="singleicon__userbody" d="M130.294 160.09C122.14 160.09 115.101 163.353 113.356 173.019C112.865 175.737 115.18 178 117.941 178H130H142.059C144.82 178 147.131 175.739 146.673 173.016C145.045 163.353 138.448 160.09 130.294 160.09Z" />
</g>
<defs>
<clipPath id="clip0">
<rect width="40" height="40" fill="white" transform="translate(110 138)"/>
</clipPath>
</defs>
</svg>
